<svg width="951" height="517" viewBox="0 0 951 517" fill="none" xmlns="http://www.w3.org/2000/svg">
<rect width="951" height="517" fill="#121212"/>
<g clip-path="url(#clip0_4_67)">
<path d="M214.83 258.13C214.83 275.003 211.603 289.507 205.15 301.64C198.947 313.5 189.31 323.213 177.5 329.51C165.5 335.97 151.29 339.203 134.87 339.21H75V297.79C84.11 297.52 91.79 295.55 92.86 292.99C95.98 285.56 99.79 288.32 99.79 288.32C111.38 294.38 119.34 293.32 119.34 293.32C128.68 298.69 140.62 303.53 146.67 304.4C152.72 305.27 156.67 301.28 159.99 298.34C163.31 295.4 162.42 293.49 162.42 293.49C163.701 291.341 164.119 288.785 163.59 286.34C162.354 288.047 161.018 289.68 159.59 291.23C160.267 289.934 160.502 288.452 160.26 287.01C159.037 288.234 157.738 289.38 156.37 290.44L157.44 285.14C155.717 285.979 154.341 287.394 153.55 289.14L154.76 285.14C153.457 285.741 152.321 286.65 151.45 287.79L152 285C150.827 285.504 149.832 286.347 149.14 287.42L149.05 287.62V287.39L149.68 283.99C148.635 284.451 147.75 285.214 147.14 286.18L146.76 285.92L147.13 283.92C147.13 283.92 146.5 283.99 145.63 285.15C143.036 283.389 140.57 281.448 138.25 279.34C154.43 279.34 162.04 273.07 153.91 273.56C145.26 274.08 141.11 268.37 136.26 266.64C134.809 266.199 133.297 265.99 131.78 266.02C131.629 263.741 131.74 261.453 132.11 259.2C132.9 254.09 135.69 252.56 139.5 252.31C139.87 253.96 140.36 256.08 140.38 256.08C140.4 256.08 141.55 253.52 141.55 253.52C142.087 254.743 142.502 256.016 142.79 257.32C143.43 256.695 143.928 255.941 144.252 255.108C144.577 254.275 144.719 253.383 144.67 252.49C144.977 254.312 145.164 256.153 145.23 258C145.87 257.596 146.407 257.048 146.799 256.401C147.191 255.754 147.428 255.024 147.49 254.27C147.49 254.27 148.29 258.51 148.22 258.81C148.15 259.11 151.03 257.31 151.5 253.81C152.571 255.508 153.358 257.369 153.83 259.32C153.83 259.32 155.71 257.44 154.66 252.56L155.23 252.43C156.45 254.588 157.229 256.968 157.52 259.43C157.52 259.43 160.72 257.1 159.39 251.2L159.67 251.11C160.37 252.742 160.889 254.445 161.22 256.19C162.354 254.338 162.826 252.155 162.56 250L162.85 249.88C163.949 252.35 164.751 254.941 165.24 257.6C165.24 257.6 167.97 254.6 166.51 248.2L166.78 248.06C167.807 250.093 168.554 252.256 169 254.49C169.999 251.96 170.15 249.173 169.43 246.55L169.54 246.48C170.342 247.914 170.989 249.429 171.47 251C172.421 249.024 172.719 246.796 172.32 244.64L172.55 244.47L174.35 248.23C174.927 247.34 175.296 246.331 175.429 245.278C175.562 244.225 175.457 243.156 175.12 242.15C175.57 241.691 175.911 241.138 176.12 240.53C177.32 236.21 173.52 228.77 173.52 228.77C171.24 218.04 150.65 218.77 150.65 218.77C148.75 216.17 143.73 215.14 139.75 218.6C135.77 222.06 119.69 222.75 115.75 218.25C111.81 213.75 111.42 214 105.54 214C99.66 214 93 220.65 93 220.65C83 217.46 80.89 219.75 75 222.51V177.23H134.8C151.287 177.23 165.507 180.457 177.46 186.91C189.244 193.23 198.859 202.943 205.06 214.79C211.58 226.863 214.837 241.31 214.83 258.13Z" fill="white"/>
<path d="M267.85 177.22V339.22H228.7V177.22H267.85Z" fill="white"/>
<path d="M421.31 177.22V339.22H388.1L323.64 245.71H322.64V339.2H283.46V177.22H317.15L380.9 270.55H382.24V177.22H421.31Z" fill="white"/>
<path d="M589.81 258.21C589.81 276.03 586.38 291.137 579.52 303.53C573.166 315.429 563.513 325.242 551.72 331.79C540.04 338.23 526.95 341.447 512.45 341.44C497.95 341.433 484.85 338.19 473.15 331.71C461.396 325.13 451.773 315.319 445.42 303.44C438.627 291.047 435.213 275.97 435.18 258.21C435.147 240.45 438.56 225.343 445.42 212.89C451.754 201.005 461.382 191.2 473.15 184.65C484.803 178.217 497.903 175 512.45 175C526.997 175 540.087 178.217 551.72 184.65C563.508 191.196 573.159 201.001 579.52 212.89C586.38 225.283 589.81 240.39 589.81 258.21ZM549.81 258.21C549.81 247.657 548.32 238.747 545.34 231.48C542.36 224.213 538.08 218.7 532.5 214.94C526.94 211.2 520.257 209.33 512.45 209.33C504.643 209.33 497.977 211.2 492.45 214.94C486.87 218.693 482.587 224.207 479.6 231.48C476.613 238.753 475.123 247.663 475.13 258.21C475.13 268.763 476.62 277.673 479.6 284.94C482.58 292.207 486.863 297.717 492.45 301.47C498.043 305.223 504.71 307.097 512.45 307.09C520.19 307.083 526.873 305.21 532.5 301.47C538.073 297.73 542.347 292.22 545.32 284.94C548.293 277.66 549.783 268.75 549.79 258.21H549.81Z" fill="white"/>
<path d="M603.12 339.2V316.89L681.81 209H603.24V177.22H731.33V199.52L652.63 307.4H731.24V339.2H603.12Z" fill="white"/>
<path d="M745.83 339.2V316.89L824.52 209H745.91V177.22H874V199.52L795.34 307.4H874V339.2H745.83Z" fill="white"/>
</g>
<defs>
<clipPath id="clip0_4_67">
<rect width="799.04" height="166.41" fill="white" transform="translate(75 175)"/>
</clipPath>
</defs>
</svg>
