<svg id="Layer_1" data-name="Layer 1" xmlns="http://www.w3.org/2000/svg" viewBox="0 0 799.04 166.41"><defs><style>.cls-1{fill:#fff;}</style></defs><g id="OBJECTS"><path class="cls-1" d="M139.83,83.13q0,25.31-9.68,43.51a66.53,66.53,0,0,1-27.65,27.87q-18,9.69-42.63,9.7H0V122.79c9.11-.27,16.79-2.24,17.86-4.8,3.12-7.43,6.93-4.67,6.93-4.67,11.59,6.06,19.55,5,19.55,5,9.34,5.37,21.28,10.21,27.33,11.08s10-3.12,13.32-6.06,2.43-4.85,2.43-4.85a9.88,9.88,0,0,0,1.17-7.15,53.61,53.61,0,0,1-4,4.89,6.71,6.71,0,0,0,.67-4.22,40.94,40.94,0,0,1-3.89,3.43l1.07-5.3a8.22,8.22,0,0,0-3.89,4l1.21-4a8.81,8.81,0,0,0-3.31,2.65L77,110a6.42,6.42,0,0,0-2.86,2.42l-.09.2v-.23l.63-3.4a5.75,5.75,0,0,0-2.54,2.19l-.38-.26.37-2s-.63.07-1.5,1.23a66.61,66.61,0,0,1-7.38-5.81c16.18,0,23.79-6.27,15.66-5.78-8.65.52-12.8-5.19-17.65-6.92a14.44,14.44,0,0,0-4.48-.62,29.93,29.93,0,0,1,.33-6.82c.79-5.11,3.58-6.64,7.39-6.89.37,1.65.86,3.77.88,3.77s1.17-2.56,1.17-2.56a20.34,20.34,0,0,1,1.24,3.8,6.27,6.27,0,0,0,1.88-4.83h0A42.22,42.22,0,0,1,70.23,83a4.89,4.89,0,0,0,2.26-3.73s.8,4.24.73,4.54,2.81-1.5,3.28-5a18.48,18.48,0,0,1,2.33,5.51s1.88-1.88.83-6.76l.57-.13a18.69,18.69,0,0,1,2.29,7s3.2-2.33,1.87-8.23l.28-.09a24.43,24.43,0,0,1,1.55,5.08A9.6,9.6,0,0,0,87.56,75l.29-.12a34.19,34.19,0,0,1,2.39,7.72s2.73-3,1.27-9.4l.27-.14A25.22,25.22,0,0,1,94,79.49a12.56,12.56,0,0,0,.43-7.94l.11-.07A23.15,23.15,0,0,1,96.47,76a10.33,10.33,0,0,0,.85-6.36l.23-.17,1.8,3.76a7.06,7.06,0,0,0,.77-6.08,4.32,4.32,0,0,0,1-1.62c1.2-4.32-2.6-11.76-2.6-11.76-2.28-10.73-22.87-10-22.87-10-1.9-2.6-6.92-3.63-10.9-.17s-20.06,4.15-24-.35S36.42,39,30.54,39,18,45.65,18,45.65c-10-3.19-12.11-.9-18,1.86V2.23h59.8q24.73,0,42.66,9.68a66.78,66.78,0,0,1,27.6,27.88Q139.84,57.9,139.83,83.13Z"/><path class="cls-1" d="M192.85,2.22v162H153.7V2.22Z"/><path class="cls-1" d="M346.31,2.22v162H313.1L248.64,70.71h-1V164.2H208.46V2.22h33.69L305.9,95.55h1.34V2.22Z"/><path class="cls-1" d="M514.81,83.21q0,26.73-10.29,45.32a70.08,70.08,0,0,1-27.8,28.26q-17.52,9.66-39.27,9.65t-39.3-9.73a70.5,70.5,0,0,1-27.73-28.27q-10.19-18.59-10.24-45.23t10.24-45.32A70,70,0,0,1,398.15,9.65Q415.63,0,437.45,0t39.27,9.65a70.16,70.16,0,0,1,27.8,28.24Q514.81,56.48,514.81,83.21Zm-40,0q0-15.83-4.47-26.73T457.5,39.94q-8.34-5.61-20.05-5.61t-20,5.61q-8.37,5.63-12.85,16.54t-4.47,26.73q0,15.83,4.47,26.73t12.85,16.53q8.39,5.63,20,5.62t20.05-5.62q8.36-5.61,12.82-16.53t4.47-26.73Z"/><path class="cls-1" d="M528.12,164.2V141.89L606.81,34H528.24V2.22H656.33v22.3L577.63,132.4h78.61v31.8Z"/><path class="cls-1" d="M670.83,164.2V141.89L749.52,34H670.91V2.22H799v22.3L720.34,132.4H799v31.8Z"/></g></svg>